# Blender 4.0.1
# www.blender.org
mtllib cornell_box.mtl
o Cube
v -5.716951 5.716951 -0.062694
v -5.716951 5.716951 11.371208
v 5.716951 5.716951 -0.062694
v 5.716951 5.716951 11.371208
v -5.716951 -5.716951 -0.062694
v -5.716951 -5.716951 11.371208
v 5.716951 -5.716951 -0.062694
v 5.716951 -5.716951 11.371208
vn -0.0000 -1.0000 -0.0000
vn -1.0000 -0.0000 -0.0000
vn 1.0000 -0.0000 -0.0000
vn -0.0000 -0.0000 1.0000
vn -0.0000 -0.0000 -1.0000
vt 0.625000 0.000000
vt 0.375000 0.000000
vt 0.375000 0.250000
vt 0.625000 0.250000
vt 0.375000 0.500000
vt 0.625000 0.750000
vt 0.375000 0.750000
vt 0.375000 1.000000
vt 0.125000 0.500000
vt 0.125000 0.750000
vt 0.875000 0.500000
vt 0.625000 0.500000
vt 0.625000 1.000000
vt 0.875000 0.750000
s 0
f 2/1/1 1/2/1 3/3/1
f 4/4/2 3/3/2 7/5/2
f 6/6/3 5/7/3 1/8/3
f 7/5/4 3/9/4 1/10/4
f 4/11/5 8/12/5 6/6/5
f 2/1/1 3/3/1 4/4/1
f 4/4/2 7/5/2 8/12/2
f 6/6/3 1/8/3 2/13/3
f 7/5/4 1/10/4 5/7/4
f 4/11/5 6/6/5 2/14/5
o Cube.001
v -4.631130 2.751905 -0.073406
v -4.631130 2.751905 7.823498
v -1.691941 4.134465 -0.073406
v -1.691941 4.134465 7.823498
v -3.248571 -0.187284 -0.073406
v -3.248571 -0.187284 7.823498
v -0.309381 1.195276 -0.073406
v -0.309381 1.195276 7.823498
vn -0.4256 0.9049 -0.0000
vn 0.9049 0.4256 -0.0000
vn 0.4256 -0.9049 -0.0000
vn -0.9049 -0.4256 -0.0000
vn -0.0000 -0.0000 -1.0000
vn -0.0000 -0.0000 1.0000
vt 0.625000 0.000000
vt 0.375000 0.250000
vt 0.375000 0.000000
vt 0.625000 0.250000
vt 0.375000 0.500000
vt 0.625000 0.500000
vt 0.375000 0.750000
vt 0.625000 0.750000
vt 0.375000 1.000000
vt 0.125000 0.750000
vt 0.125000 0.500000
vt 0.875000 0.500000
vt 0.625000 1.000000
vt 0.875000 0.750000
s 0
f 10/15/6 11/16/6 9/17/6
f 12/18/7 15/19/7 11/16/7
f 16/20/8 13/21/8 15/19/8
f 14/22/9 9/23/9 13/21/9
f 15/19/10 9/24/10 11/25/10
f 12/26/11 14/22/11 16/20/11
f 10/15/6 12/18/6 11/16/6
f 12/18/7 16/20/7 15/19/7
f 16/20/8 14/22/8 13/21/8
f 14/22/9 10/27/9 9/23/9
f 15/19/10 13/21/10 9/24/10
f 12/26/11 10/28/11 14/22/11
o Cube.002
v 0.368349 0.385359 -0.059248
v 0.368349 0.385359 3.070607
v 3.443771 -0.195823 -0.059248
v 3.443771 -0.195823 3.070607
v -0.212833 -2.690063 -0.059248
v -0.212833 -2.690063 3.070607
v 2.862588 -3.271245 -0.059248
v 2.862588 -3.271245 3.070607
vn 0.1857 0.9826 -0.0000
vn 0.9826 -0.1857 -0.0000
vn -0.1857 -0.9826 -0.0000
vn -0.9826 0.1857 -0.0000
vn -0.0000 -0.0000 -1.0000
vn -0.0000 -0.0000 1.0000
vt 0.625000 0.000000
vt 0.375000 0.250000
vt 0.375000 0.000000
vt 0.625000 0.250000
vt 0.375000 0.500000
vt 0.625000 0.500000
vt 0.375000 0.750000
vt 0.625000 0.750000
vt 0.375000 1.000000
vt 0.125000 0.750000
vt 0.125000 0.500000
vt 0.875000 0.500000
vt 0.625000 1.000000
vt 0.875000 0.750000
s 0
f 18/29/12 19/30/12 17/31/12
f 20/32/13 23/33/13 19/30/13
f 24/34/14 21/35/14 23/33/14
f 22/36/15 17/37/15 21/35/15
f 23/33/16 17/38/16 19/39/16
f 20/40/17 22/36/17 24/34/17
f 18/29/12 20/32/12 19/30/12
f 20/32/13 24/34/13 23/33/13
f 24/34/14 22/36/14 21/35/14
f 22/36/15 18/41/15 17/37/15
f 23/33/16 21/35/16 17/38/16
f 20/40/17 18/42/17 22/36/17
